<?xml version="1.0" encoding="utf-8"?>
<!-- Generator: Adobe Illustrator 25.2.1, SVG Export Plug-In . SVG Version: 6.00 Build 0)  -->
<svg version="1.1" id="Capa_1" xmlns="http://www.w3.org/2000/svg" xmlns:xlink="http://www.w3.org/1999/xlink" x="0px" y="0px"
	 viewBox="0 0 500 462.7" style="enable-background:new 0 0 500 462.7;" xml:space="preserve">
<style type="text/css">
	.st0{fill:#020600;}
	.st1{fill:#FFFFFF;}
	.st2{font-family:'ArialMT';}
	.st3{font-size:34.6023px;}
	.st4{font-size:18.0735px;}
	.st5{fill:#272726;}
	.st6{fill:#53AAFF;}
	.st7{fill:#FF2B7F;}
	.st8{fill:none;}
</style>
<g id="BACKGROUND">
	<rect x="1.2" class="st0" width="500" height="463"/>
</g>
<g id="OBJECTS">
	<g>
		<text transform="matrix(1 0 0 1 195.2148 119.8161)" class="st1 st2 st3">ERROR</text>
	</g>
	<text transform="matrix(1 0 0 1 134.0947 315.6935)" class="st1 st2 st4">PAGINA NO ENCONTRADA</text>
	<g>
		<text transform="matrix(1 0 0 1 197.5991 118.6237)" class="st5 st2 st3">ERROR</text>
	</g>
	<g>
		<rect x="143" y="78.2" class="st6" width="12.4" height="12.4"/>
		<rect x="145.2" y="80.4" class="st7" width="12.4" height="12.4"/>
	</g>
	<g>
		<rect x="328.6" y="338.7" class="st6" width="12.5" height="12.5"/>
		<rect x="330.8" y="340.9" class="st7" width="12.5" height="12.5"/>
	</g>
	<g>
		<rect x="394.6" y="85.5" class="st6" width="12.5" height="12.4"/>
		<rect x="396.9" y="87.8" class="st7" width="12.5" height="12.5"/>
	</g>
	<g>
		<rect x="59.3" y="279.4" class="st6" width="12.4" height="12.5"/>
		<rect x="61.6" y="281.7" class="st7" width="12.5" height="12.5"/>
	</g>
	<g>
		<rect x="383.1" y="285.7" class="st6" width="12.5" height="12.5"/>
		<rect x="385.4" y="287.9" class="st7" width="12.5" height="12.5"/>
	</g>
	<g>
		<rect x="350.2" y="120" class="st6" width="14.8" height="14.8"/>
		<rect x="352.9" y="122.7" class="st7" width="14.8" height="14.8"/>
	</g>
	<g>
		<rect x="185.3" y="327.5" class="st6" width="14.8" height="14.8"/>
		<rect x="187.9" y="330.2" class="st7" width="14.8" height="14.8"/>
	</g>
	<g>
		<rect x="241.7" y="40.3" class="st6" width="14.8" height="14.8"/>
		<rect x="244.3" y="43" class="st7" width="14.8" height="14.8"/>
	</g>
	<g>
		<rect x="292" y="68.7" class="st6" width="6.6" height="6.7"/>
		<rect x="293.1" y="69.8" class="st7" width="6.6" height="6.7"/>
	</g>
	<g>
		<rect x="272.8" y="357.1" class="st6" width="6.6" height="6.6"/>
		<rect x="274" y="358.3" class="st7" width="6.6" height="6.6"/>
	</g>
	<g>
		<rect x="108.4" y="331" class="st6" width="6.7" height="6.6"/>
		<rect x="109.6" y="332.2" class="st7" width="6.7" height="6.6"/>
	</g>
	<g>
		<polygon class="st8" points="119.2,200.8 105.9,219.8 119.2,219.8 119.2,219.7 124,219.7 133.6,219.7 133.6,217.1 124,217.1 
			119.2,217.1 		"/>
		<polygon class="st8" points="376.1,219.8 389.4,219.8 389.4,200.8 		"/>
		<rect x="90.3" y="232.7" class="st8" width="2.6" height="2.6"/>
		<rect x="293.9" y="217.3" class="st8" width="2.6" height="2.6"/>
		<rect x="282" y="187.5" class="st8" width="2.6" height="2.6"/>
		<rect x="224.5" y="167.1" class="st8" width="4.6" height="4.6"/>
		<rect x="344.4" y="220.9" class="st8" width="4.6" height="4.6"/>
		<polygon class="st6" points="119,154.1 114.2,154.1 111.3,158.2 116.1,158.2 		"/>
		<polygon class="st6" points="119.2,217.1 124,217.1 124,200.7 119.2,200.7 119.2,200.8 		"/>
		<rect x="119.2" y="219.7" class="st6" width="4.8" height="0.1"/>
		<polygon class="st6" points="63.6,224.3 80.6,200.6 75.8,200.6 58.8,224.3 58.8,230.1 63.6,230.1 		"/>
		<rect x="58.8" y="235.3" class="st6" width="4.8" height="9.8"/>
		<rect x="118.2" y="262.9" class="st6" width="4.8" height="3.7"/>
		<polygon class="st6" points="90.3,180.4 81.4,192.9 86.2,192.9 95.1,180.4 		"/>
		<path class="st6" d="M201.2,216.8h15.9v-2.6h-9.2h-9.2h-2.4c0.2,6.3,1.1,12.1,2.5,17.5h4.8C202.4,227,201.6,222.1,201.2,216.8z"/>
		<path class="st6" d="M202.4,194.2h-4.8c-1,5-1.5,10.4-1.5,16.2c0,0.4,0,0.8,0,1.2h4.8c0-0.4,0-0.8,0-1.2
			C201,204.6,201.5,199.2,202.4,194.2z"/>
		<path class="st6" d="M263.2,235.3h11.6v-2.6h-13.5h-1.5c-0.4,0.8-0.8,1.6-1.2,2.4c-2.2,3.6-4.9,5.9-8,7c0.8,0.3,1.6,0.5,2.4,0.6
			C257.2,242,260.6,239.5,263.2,235.3z"/>
		<path class="st6" d="M200.3,236.3c0.6,1.7,1.3,3.4,2,5h4.8c-0.8-1.6-1.4-3.3-2-5H200.3z"/>
		<path class="st6" d="M209.3,245.5h-4.8c4,7,9.2,12.5,15.6,16.5c7.5,4.6,16.1,6.9,25.7,6.9c0.8,0,1.6,0,2.4-0.1
			c-8.7-0.4-16.4-2.6-23.3-6.8C218.5,258,213.3,252.5,209.3,245.5z"/>
		<polygon class="st6" points="343.3,211.1 350.6,211.1 350.6,206.9 342.1,206.9 341.5,206.9 329,224.3 329,233.7 333.7,233.7 
			333.7,224.3 		"/>
		<rect x="388.4" y="245.1" class="st6" width="4.8" height="0.1"/>
		<rect x="385.4" y="255.5" class="st6" width="4.8" height="11.1"/>
		<polygon class="st6" points="389.4,219.8 394.1,219.8 394.1,200.7 389.4,200.7 389.4,200.8 		"/>
		<polygon class="st6" points="367.5,170.7 354.3,189.1 359.1,189.1 372.3,170.7 		"/>
		<polygon class="st7" points="101.2,219.8 105.9,219.8 119.2,200.8 119.2,200.7 123.8,194.2 119.1,194.2 		"/>
		<rect x="154" y="209.1" class="st7" width="4.8" height="10.8"/>
		<rect x="154" y="245.1" class="st7" width="4.8" height="21.5"/>
		<polygon class="st7" points="175.5,219.8 170.7,219.8 170.7,228.5 164.4,228.5 164.4,232.7 170.7,232.7 170.7,245.1 175.5,245.1 
			175.5,243.4 180.5,243.4 180.5,240.8 175.5,240.8 		"/>
		<rect x="154" y="200.7" class="st7" width="4.8" height="3.6"/>
		<polygon class="st7" points="153.9,158.2 156.7,154.1 151.9,154.1 149.1,158.2 		"/>
		<polygon class="st7" points="122.6,189 127.4,189 145.3,163.4 140.5,163.4 		"/>
		<path class="st7" d="M253,268.8c0.8,0,1.6,0.1,2.4,0.1c9.5,0,18-2.3,25.5-6.9c2.4-1.5,4.6-3.2,6.7-5.1h-4.8
			c-2.1,1.9-4.3,3.6-6.7,5.1C269.3,266.2,261.6,268.4,253,268.8z"/>
		<path class="st7" d="M234,196.7c-0.6,3.5-0.9,7.5-1,12h4.8c0.1-4.5,0.4-8.5,1-12H237H234z"/>
		<path class="st7" d="M298.5,241.8c2-4.2,3.5-8.8,4.6-13.7h-4.8c-1,4.9-2.6,9.5-4.6,13.7c-2.3,4.8-5.1,8.9-8.3,12.5h2.4h18.4v-2.6
			h-13.9C294.7,248.7,296.8,245.4,298.5,241.8z"/>
		<path class="st7" d="M250.6,242.8c0.8,0,1.6-0.1,2.4-0.2c-0.8-0.1-1.6-0.3-2.4-0.6c-3.2-1.1-5.9-3.5-8.1-7
			c-2.6-4.3-4.1-10.7-4.6-19.1h4.6v-2.6h-2.6h-4.6H233c0.3,9.7,1.8,17,4.7,21.7C240.8,240.2,245.1,242.8,250.6,242.8z"/>
		<rect x="424.2" y="200.7" class="st7" width="4.8" height="19.1"/>
		<rect x="424.2" y="245.1" class="st7" width="4.8" height="7.9"/>
		<polygon class="st7" points="403.2,181 421.9,154.1 417.1,154.1 398.4,181 		"/>
		<rect x="421.2" y="258.1" class="st7" width="4.8" height="8.5"/>
		<rect x="440.9" y="228.3" class="st7" width="4.8" height="16.7"/>
		<polygon class="st7" points="371.3,219.8 376.1,219.8 389.4,200.8 389.4,200.7 397.8,188.7 393,188.7 		"/>
		<polygon class="st1" points="149.1,158.2 151.9,154.1 147.2,154.1 123.8,154.1 119,154.1 116.1,158.2 		"/>
		<path class="st1" d="M164.4,232.7v-4.2h6.3v-8.6h-4.8h-7.2H154v-10.8h4.8h8.6v-2.1v-0.4h-19.3v-2.1h5.9v-3.6h-4.8h-20.5H124v16.4
			h9.6v2.6H124v0.1h-4.8h-13.3h-4.8l17.9-25.7h4.8h5.5v-2.6h-11.2V189h4.5l17.9-25.6h4.8h9.7v-2.6h-36.8h-8.9l-10.4,14.5h13.5v2.6
			h-7.2H93.9h-1.8h-5.4v2.6h3.6h4.8l-8.9,12.4h4.7v3.9H68.3v3.9h7.5h4.8l-17,23.7v5.8h-4.8H48.2v2.6h35.8v2.6H63.6v9.8h4.8h49.9h4.8
			v12.7h4.4v2.6h9.9v2.6H123v3.7h4.8h21.5h4.8v-21.5h4.8h7.2h4.8v-12.4L164.4,232.7L164.4,232.7z M92.8,235.3h-2.6v-2.6h2.6V235.3z
			 M139.9,243.4h-2.6v-2.6h2.6V243.4z"/>
		<path class="st1" d="M298.3,228.1h-4.7h-36.8v4.6h3h1.5h13.5v2.6h-11.6c-2.7,4.3-6.1,6.7-10.3,7.4c-0.8,0.1-1.6,0.2-2.4,0.2
			c-5.5,0-9.8-2.6-12.9-7.8c-2.9-4.7-4.4-12-4.7-21.7h-1.6v-4.6h1.6c0.1-4.5,0.4-8.5,1-12h3h1.8h3h11.7v-2.6h-1.6h-35.1v2.6h-3v-2.6
			h-11.2c-1,5-1.5,10.4-1.5,16.2c0,0.4,0,0.8,0,1.2h6.9v2.6h9.2v2.6h-15.9c0.4,5.3,1.1,10.3,2.4,14.9h-4.8h-8.5v4.6h10h4.8
			c0.6,1.7,1.3,3.4,2,5h6.5v4.2h-4.4c4,7,9.2,12.5,15.6,16.5c6.9,4.2,14.6,6.5,23.3,6.8c0.8,0,1.6,0.1,2.4,0.1c0.8,0,1.6,0,2.4-0.1
			c8.6-0.4,16.3-2.6,23.2-6.8c2.4-1.5,4.6-3.2,6.7-5.1h-38v-2.6h40.6c3.2-3.5,6-7.7,8.3-12.5C295.8,237.6,297.3,233,298.3,228.1z"/>
		<polygon class="st1" points="390.2,255.5 390.2,266.6 394.9,266.6 416.4,266.6 421.2,266.6 421.2,258.1 425.9,258.1 431.1,258.1 
			431.1,255.5 394.2,255.5 		"/>
		<path class="st1" d="M436.1,219.8h-7.2h-4.8v-19.1h-4.8h-20.5h-4.8v19.1h-4.8h-13.3h-4.8l21.7-31.1h4.8h12.7v-3.9h-28V181h15.9
			l18.7-26.8h-4.8h-23.4h-4.8l-6.7,9.3h10.1v2.6h-13.5h-3.2h-15.6v4.6h12.2h4.8l-13.2,18.4h2.4v2.5h7.4v2.6h-13.4l-6.2,8.6H371v4.2
			h-20.4v4.2h-7.3l-9.5,13.3v9.4h26.8v2.6h-18.1v2.5h-8.7v6.3h4.8h49.9h4.8v0.1h1.7v2.6h9.1v2.6h-10.8v2.6h31v-7.9h4.8h7.2h4.8
			v-16.7H402v-2.6h38.9v-5.9L436.1,219.8L436.1,219.8z M399.6,158.2h2.6v2.6h-2.6V158.2z M349,225.5h-4.6v-4.6h4.6V225.5z
			 M377.8,238.8h-2.6v-2.6h2.6V238.8z M404.6,239h4.6v4.6h-4.6V239z"/>
		<polygon class="st6" points="368.9,194.1 368.9,191.5 361.5,191.5 361.5,191.6 355.4,191.6 352.5,191.6 344.5,202.7 349.3,202.7 
			355.5,194.1 		"/>
		<polygon class="st6" points="387.5,166 387.5,163.5 377.5,163.5 384.2,154.1 379.4,154.1 370.9,166 374.1,166 		"/>
		<polygon class="st6" points="105.2,177.8 112.4,177.8 112.4,175.3 98.8,175.3 109.2,160.8 104.5,160.8 94.1,175.3 93.9,175.3 
			93.9,175.4 92.2,177.8 93.9,177.8 		"/>
		<polygon class="st6" points="123,257.8 123,245.1 118.2,245.1 118.2,257.8 108.9,257.8 108.9,260.4 127.3,260.4 127.3,257.8 		"/>
		<polygon class="st7" points="445.6,223.2 445.6,219.8 440.9,219.8 440.9,225.8 441.9,225.8 454.5,225.8 457,225.8 457,223.2 		"/>
		<rect x="163.2" y="260.4" class="st7" width="2.6" height="2.6"/>
		<rect x="399.6" y="158.2" class="st7" width="2.6" height="2.6"/>
		<rect x="85.5" y="166.8" class="st6" width="2.6" height="2.6"/>
		<rect x="137.3" y="240.8" class="st6" width="2.6" height="2.6"/>
		<rect x="375.2" y="236.2" class="st6" width="2.6" height="2.6"/>
		<rect x="159.2" y="160.8" class="st1" width="2.6" height="2.6"/>
		<rect x="343.1" y="179.7" class="st1" width="2.6" height="2.6"/>
		<rect x="141.3" y="185.5" class="st1" width="2.6" height="2.6"/>
		<rect x="50.7" y="205.6" class="st1" width="2.6" height="2.6"/>
		<rect x="369.7" y="257.8" class="st1" width="2.6" height="2.6"/>
		<rect x="435.3" y="255.5" class="st1" width="2.6" height="2.6"/>
		<path class="st6" d="M214.5,171.7h-4.8c-1.5,2.2-3,4.7-4.2,7.3c-1.9,3.9-3.3,8.1-4.3,12.6h4.8c1-4.5,2.5-8.7,4.3-12.6
			C211.6,176.3,213,173.9,214.5,171.7z"/>
		<path class="st6" d="M227.9,158.8c6.9-4.2,14.6-6.5,23.3-6.8c-0.8,0-1.6-0.1-2.4-0.1c-9.6,0-18.2,2.3-25.7,6.9
			c-3.7,2.2-6.9,5-9.8,8.3h4.8C221,163.8,224.3,161.1,227.9,158.8z"/>
		<path class="st6" d="M266.4,185.7c-2.7-4.4-6.1-6.9-10.4-7.6c-0.8,0.1-1.6,0.3-2.4,0.6c3.2,1.1,5.9,3.5,8,7
			c3.2,5.2,4.7,13.4,4.7,24.7c0,4.9-0.3,9.3-0.9,13.1h4.8c0.6-3.8,0.9-8.1,0.9-13.1C271.1,199.1,269.5,190.9,266.4,185.7z"/>
		<path class="st7" d="M289.8,168.1h4.8c-3.1-3.7-6.6-6.8-10.7-9.3c-7.5-4.6-16-6.9-25.5-6.9c-0.8,0-1.6,0-2.4,0.1
			c8.6,0.4,16.3,2.6,23.2,6.8C283.2,161.3,286.7,164.4,289.8,168.1z"/>
		<path class="st7" d="M253.6,177.9c-5.1,0-9.3,2.3-12.4,6.9h-12v2.6h10.5c-0.6,1.2-1.1,2.6-1.6,4.1h4.8c0.7-2.3,1.5-4.2,2.5-5.9
			c2.2-3.6,4.9-5.9,8.1-7c0.8-0.3,1.6-0.5,2.4-0.6C255.2,178,254.4,177.9,253.6,177.9z"/>
		<path class="st7" d="M303.1,209.1c0,0.4,0,0.9,0,1.3c0,4.6-0.3,9-0.9,13.1h4.8c0.6-3.8,0.9-7.8,0.9-11.9h10.5v-2.5h-13.5H303.1z"
			/>
		<path class="st7" d="M296.8,179c3.8,7.9,5.9,17.1,6.3,27.5h4.8c-0.4-10.5-2.5-19.6-6.3-27.5c-1-2-2-3.9-3.2-5.7h-4.8
			C294.7,175,295.8,176.9,296.8,179z"/>
		<path class="st1" d="M303.1,209.1h-7.9v-2.6h7.8c-0.4-10.5-2.5-19.6-6.3-27.5c-1-2-2-3.9-3.2-5.7h4.8h18.4v-2.6h-8.8h-28h-8.8
			v-2.6h18.7c-3.1-3.7-6.6-6.8-10.7-9.3c-6.9-4.2-14.6-6.5-23.2-6.8c-0.8,0-1.6-0.1-2.4-0.1c-0.8,0-1.6,0-2.4,0.1
			c-8.7,0.4-16.4,2.6-23.3,6.8c-3.7,2.2-6.9,5-9.8,8.3h1.6v4.6h-5.2c-1.5,2.2-3,4.7-4.2,7.3c-1.9,3.9-3.3,8.1-4.3,12.6h32.2
			c0.5-1.5,1-2.9,1.6-4.1h-10.5v-2.6h12c3.1-4.6,7.2-6.9,12.4-6.9c0.8,0,1.6,0.1,2.4,0.2c4.3,0.7,7.7,3.2,10.4,7.6
			c3.2,5.2,4.7,13.4,4.7,24.7c0,4.9-0.3,9.3-0.9,13.1h32c0.6-4.1,0.9-8.5,0.9-13.1C303.1,209.9,303.1,209.5,303.1,209.1z
			 M229.1,171.7h-4.6v-4.6h4.6V171.7z M284.5,190H282v-2.6h2.6V190z M296.5,219.9h-2.6v-2.6h2.6V219.9z"/>
		<rect x="311.3" y="191.8" class="st7" width="4.6" height="4.6"/>
		<rect x="404.6" y="239" class="st7" width="4.6" height="4.6"/>
		<rect x="420.5" y="161.6" class="st7" width="3.7" height="3.7"/>
		<polygon class="st6" points="342.4,238.8 342.4,236.3 329,236.3 329,238.8 329,245.1 333.7,245.1 333.7,238.8 		"/>
		<polygon class="st6" points="404,250.3 404,247.7 394.9,247.7 390.5,247.7 388.4,247.7 388.4,253 393.2,253 393.2,250.3 		"/>
		<polygon class="st6" points="181.4,175.1 181.4,173.9 174.8,173.9 174.8,180.6 175.9,180.6 175.9,175.1 		"/>
		<polygon class="st7" points="175.9,175.1 175.9,180.6 175.9,181.8 182.6,181.8 182.6,175.1 181.4,175.1 		"/>
	</g>
	<g>
		<rect x="342.4" y="268.8" class="st6" width="6.6" height="6.6"/>
		<rect x="343.6" y="270" class="st7" width="6.6" height="6.6"/>
	</g>
	<g>
		<rect x="86.4" y="126.2" class="st6" width="6.7" height="6.6"/>
		<rect x="87.6" y="127.4" class="st7" width="6.7" height="6.6"/>
	</g>
	<g>
		<rect x="123.4" y="294.2" class="st6" width="6.7" height="6.6"/>
		<rect x="124.6" y="295.4" class="st7" width="6.7" height="6.6"/>
	</g>
</g>
<g id="DESIGNED_BY_FREEPIK">
</g>
</svg>
